#!OML:ASF F:\VICON\USERDATA\INSTALL\Justin_Nancy\Justin_Nancy.ASF
:FULLY-SPECIFIED
:DEGREES
191
root 4.78113 17.4054 -2.23181 4.04069 -35.5558 -3.85363
lowerback 7.25509 2.51119 5.17319
upperback 0.744348 3.82781 2.93111
thorax -3.15701 1.83862 -0.235322
lowerneck -19.1583 -3.47515 -8.12616
upperneck 22.4796 -3.58826 4.49111
head 10.632 -1.81758 2.43445
rclavicle 7.28546e-014 7.15625e-015
rhumerus -27.3836 -9.38229 -79.9493
rradius 37.3901
rwrist 1.54097
rhand -12.672 11.8426
rfingers 7.12502
rthumb 13.4094 -17.7059
lclavicle 7.28546e-014 7.15625e-015
lhumerus -33.2454 12.2054 83.4953
lradius 26.2547
lwrist -9.48037
lhand -16.6648 24.0463
lfingers 7.12502
lthumb 9.55881 53.8094
rfemur 2.30097 2.39445 33.9881
rtibia 15.8856
rfoot -14.9074 0.888659
rtoes 12.0644
lfemur -32.162 -8.92572 -12.1184
ltibia 27.3475
lfoot -10.9924 3.78267
ltoes -2.71584
192
root 4.70158 17.3876 -2.10914 4.04317 -35.8357 -3.47645
lowerback 6.95535 2.55117 4.82002
upperback 0.779358 3.82724 2.79364
thorax -2.9664 1.84802 -0.165794
lowerneck -19.2608 -3.47511 -7.96088
upperneck 22.4044 -3.6108 4.42688
head 10.6204 -1.819 2.37874
rclavicle 3.65764e-014 3.18055e-015
rhumerus -27.0657 -9.5064 -80.1053
rradius 37.2588
rwrist 1.79796
rhand -12.6153 12.1791
rfingers 7.12502
rthumb 13.464 -17.3658
lclavicle 3.65764e-014 3.18055e-015
lhumerus -33.0151 12.376 83.3987
lradius 26.0303
lwrist -9.51118
lhand -16.3005 24.4286
lfingers 7.12502
lthumb 9.91022 54.1754
rfemur 2.76885 2.41282 33.6324
rtibia 15.6246
rfoot -15.1565 1.09235
rtoes 11.0975
lfemur -32.3304 -8.42923 -12.7675
ltibia 25.9165
lfoot -11.1539 2.82794
ltoes -4.91524
193
root 4.62362 17.3659 -1.98554 4.21501 -36.2257 -3.36612
lowerback 6.71987 2.59941 4.68349
upperback 0.685026 3.86948 2.73474
thorax -2.93592 1.87085 -0.145301
lowerneck -18.9561 -3.40963 -8.01381
upperneck 22.3783 -3.55246 4.51234
head 10.5516 -1.79081 2.42911
rclavicle -2.80286e-014 -7.15625e-015
rhumerus -27.0458 -9.42358 -80.1999
rradius 37.2095
rwrist 1.88598
rhand -12.6277 12.0178
rfingers 7.12502
rthumb 13.452 -17.5279
lclavicle -2.80286e-014 -7.15625e-015
lhumerus -33.0957 12.4535 83.3013
lradius 25.9851
lwrist -9.48209
lhand -15.9007 25.0592
lfingers 7.12502
lthumb 10.2959 54.7872
rfemur 3.14941 2.581 33.5181
rtibia 15.4693
rfoot -15.3852 1.18815
rtoes 9.84826
lfemur -32.5479 -7.74847 -13.2126
ltibia 24.7036
lfoot -11.7931 1.96834
ltoes -10.4801
194
root 4.54426 17.3472 -1.86638 4.49058 -36.646 -3.73199
lowerback 6.92675 2.69763 4.79617
upperback 0.515427 4.03526 2.84438
thorax -3.22248 1.94385 -0.124742
lowerneck -18.7327 -3.45538 -8.16315
upperneck 22.4501 -3.61439 4.58538
head 10.5448 -1.82763 2.47336
rclavicle 7.61345e-014 -9.54166e-015
rhumerus -27.1525 -9.59657 -80.0287
rradius 36.9679
rwrist 2.06775
rhand -12.4214 12.5345
rfingers 7.12502
rthumb 13.6509 -16.9979
lclavicle 7.61345e-014 -9.54166e-015
lhumerus -33.5242 12.5128 83.2506
lradius 26.152
lwrist -9.92828
lhand -15.4035 25.4055
lfingers 7.12502
lthumb 10.7756 55.1091
rfemur 3.74674 2.92504 33.8858
rtibia 15.2906
rfoot -15.5017 0.982431
rtoes 8.63856
lfemur -32.7821 -6.71962 -13.3052
ltibia 23.6894
lfoot -12.5081 0.763049
ltoes -13.5125
195
root 4.46351 17.3363 -1.74353 4.63709 -37.026 -3.88004
lowerback 6.97801 2.81941 4.80067
upperback 0.462768 4.2051 2.87753
thorax -3.30231 2.02581 -0.11256
lowerneck -18.8191 -3.64905 -8.50188
upperneck 22.5533 -3.85755 4.88137
head 10.631 -1.93255 2.60108
rclavicle 3.17062e-014 1.59028e-014
rhumerus -27.2034 -9.89275 -79.8736
rradius 36.8867
rwrist 2.08068
rhand -12.1353 13.1131
rfingers 7.12502
rthumb 13.9267 -16.4005
lclavicle 3.17062e-014 1.59028e-014
lhumerus -33.7461 12.6954 83.185
lradius 26.198
lwrist -10.8518
lhand -14.4746 25.4719
lfingers 7.12502
lthumb 11.6715 55.1268
rfemur 4.43256 3.07181 34.0113
rtibia 15.0055
rfoot -15.4648 0.926377
rtoes 7.04628
lfemur -33.0146 -6.33507 -13.3901
ltibia 22.8671
lfoot -12.8488 -0.227739
ltoes -14.081
196
root 4.38425 17.3262 -1.61366 4.66847 -37.3114 -3.80108
lowerback 6.66617 2.8562 4.81973
upperback 0.565231 4.22507 2.80029
thorax -3.01325 2.04279 -0.183605
lowerneck -18.7765 -3.70411 -8.60986
upperneck 22.4754 -3.92344 4.95832
head 10.6038 -1.96238 2.6364
rclavicle 1.13506e-013 -2.46493e-014
rhumerus -27.2026 -9.69824 -79.9693
rradius 37.1189
rwrist 1.77599
rhand -11.722 13.105
rfingers 7.12502
rthumb 14.3249 -16.3808
lclavicle 1.13506e-013 -2.46493e-014
lhumerus -33.7079 12.6005 83.2369
lradius 26.2552
lwrist -10.4563
lhand -14.506 25.7228
lfingers 7.12502
lthumb 11.6412 55.3794
rfemur 5.07332 2.90846 33.86
rtibia 14.7299
rfoot -15.4784 1.15762
rtoes 7.14459
lfemur -33.1492 -6.37355 -13.5818
ltibia 22.1932
lfoot -12.8816 -1.08189
ltoes -13.6252
197
root 4.30376 17.314 -1.49203 4.67618 -37.5596 -3.6046
lowerback 6.37639 2.84229 4.65358
upperback 0.6127 4.17068 2.73109
thorax -2.81028 2.02307 -0.140888
lowerneck -18.6657 -3.53662 -8.42825
upperneck 22.3877 -3.72835 4.87368
head 10.5292 -1.86841 2.60455
rclavicle 3.04141e-014 -1.59028e-015
rhumerus -27.0833 -9.82886 -80.0741
rradius 37.0146
rwrist 2.21199
rhand -11.7057 13.0897
rfingers 7.12502
rthumb 14.3406 -16.395
lclavicle 3.04141e-014 -1.59028e-015
lhumerus -33.5963 12.5244 83.3201
lradius 26.1612
lwrist -9.42809
lhand -15.7476 25.49
lfingers 7.12502
lthumb 10.4437 55.2106
rfemur 5.51438 2.80614 33.666
rtibia 14.679
rfoot -15.6886 1.25735
rtoes 7.79202
lfemur -33.2299 -6.30238 -13.8658
ltibia 21.6253
lfoot -13.0732 -1.88855
ltoes -14.663
